<?xml version="1.0" standalone="no"?>
<svg version="1.0" xmlns="http://www.w3.org/2000/svg"
 width="800" height="120" viewBox="383 1198 1215 230"
 preserveAspectRatio="xMidYMid meet">
<g transform="translate(0.000000,2000.000000) scale(0.100000,-0.100000)"
fill="#000000" stroke="none">
<path d="M7437 7902 c-16 -3 -17 -72 -17 -1003 l0 -999 170 0 170 0 0 999 c0
963 -1 1000 -18 1006 -19 5 -272 3 -305 -3z"
/>
<path d="M8203 7902 c-9 -5 -12 -251 -12 -1005 l0 -997 172 2 172 3 1 209 2
209 101 101 c88 88 102 99 115 86 8 -8 65 -91 128 -185 63 -93 153 -227 202
-297 l87 -128 200 0 c157 0 199 3 193 13 -4 6 -37 55 -74 107 -37 52 -108 156
-158 230 -51 74 -151 220 -223 324 l-131 188 54 57 c30 31 108 112 175 181 66
69 168 175 226 235 l105 110 -206 3 -207 3 -80 -83 c-108 -112 -458 -487 -484
-518 l-20 -25 -1 165 c-1 91 -2 356 -3 590 l-2 425 -160 2 c-88 2 -165 0 -172
-5z"
/>
<path d="M3857 7832 c-11 -16 -7 -1074 3 -1070 6 2 84 82 175 178 l164 175 2
348 c1 191 2 353 3 360 1 9 -41 13 -171 15 -94 1 -174 -1 -176 -6z"
/>
<path d="M5014 7738 c-55 -57 -156 -164 -224 -238 -69 -74 -159 -171 -201
-215 -41 -44 -136 -145 -209 -225 -73 -80 -181 -197 -239 -260 -124 -135 -238
-263 -269 -304 -21 -28 -22 -36 -22 -313 l0 -283 176 2 176 3 -1 252 -2 252
38 43 c47 54 272 296 374 403 42 44 105 111 140 150 35 38 105 113 154 165 50
52 124 131 165 175 41 43 162 170 268 281 105 111 192 204 192 207 0 3 -93 6
-207 7 l-208 0 -101 -102z"
/>
<path d="M9875 7832 c-19 -7 -20 -15 -19 -242 1 -129 2 -562 3 -962 l1 -728
115 0 115 0 2 763 3 762 210 -310 c332 -492 367 -543 427 -626 32 -44 62 -79
66 -79 11 0 34 33 325 465 217 322 441 631 569 786 35 44 38 51 38 112 l0 65
-120 1 -120 2 -218 -330 c-119 -182 -275 -420 -346 -528 -112 -171 -131 -195
-140 -179 -14 24 -505 767 -605 916 l-77 115 -105 2 c-57 1 -113 -2 -124 -5z"
/>
<path d="M13878 7548 l-3 -213 -102 -3 -103 -3 0 -99 0 -99 103 -3 102 -3 1
-465 c2 -495 4 -514 52 -604 89 -163 335 -228 573 -149 l54 18 1 103 c1 56 -2
105 -6 107 -4 3 -27 -6 -51 -18 -37 -19 -60 -22 -151 -22 -102 0 -108 1 -149
30 -89 63 -83 30 -89 518 -3 238 -4 444 -2 460 l3 27 225 0 224 0 0 100 0 100
-225 0 -225 0 -2 213 -3 212 -112 3 -113 3 -2 -213z"
/>
<path d="M11678 7343 c-25 -32 -75 -100 -112 -152 l-66 -94 0 -599 0 -599 115
3 116 3 -1 744 c0 410 -2 746 -4 748 -1 2 -23 -23 -48 -54z"
/>
<path d="M6145 7355 c-101 -19 -223 -56 -297 -89 l-56 -25 35 -93 c19 -51 40
-108 47 -126 6 -19 16 -33 21 -32 6 0 57 16 115 35 143 46 223 58 338 52 115
-6 155 -17 218 -60 65 -45 103 -115 111 -205 l6 -69 -119 23 c-485 97 -827
-44 -876 -361 -32 -203 62 -382 248 -471 243 -117 547 -72 722 107 l32 33 0
-87 0 -87 166 0 165 0 -4 498 c-4 539 -6 557 -63 678 -33 70 -116 160 -189
203 -100 60 -197 82 -380 87 -114 2 -183 -1 -240 -11z m440 -808 c39 -10 76
-21 83 -26 20 -12 26 -80 13 -143 -31 -148 -169 -246 -356 -253 -185 -8 -305
82 -305 228 0 84 58 154 161 193 58 22 76 24 199 21 83 -2 162 -10 205 -20z"
/>
<path d="M12625 7350 c-139 -20 -320 -77 -373 -118 l-22 -17 31 -80 c18 -44
35 -84 39 -88 4 -5 27 1 51 14 175 89 438 116 583 59 74 -28 147 -95 181 -164
24 -48 50 -212 36 -220 -3 -2 -58 8 -121 22 -152 32 -436 38 -540 9 -267 -72
-408 -261 -373 -500 14 -102 51 -176 120 -246 100 -99 247 -151 430 -151 164
0 284 45 413 153 l75 63 -3 -93 -3 -93 116 0 117 0 -4 503 c-5 551 -5 552 -69
679 -64 126 -172 209 -326 249 -89 23 -267 32 -358 19z m401 -760 c64 -11 121
-23 126 -26 7 -5 9 -44 5 -110 -6 -120 -25 -168 -98 -248 -91 -99 -205 -146
-356 -147 -198 -1 -320 82 -354 240 -8 41 -7 61 6 106 54 187 286 251 671 185z"
/>
<path d="M15292 7340 c-244 -64 -430 -266 -492 -534 -19 -82 -22 -115 -17
-219 6 -137 22 -210 71 -312 46 -98 116 -186 197 -250 128 -99 251 -143 429
-152 184 -9 322 27 462 121 69 46 162 131 157 143 -2 5 -34 38 -71 72 l-68 63
-53 -46 c-126 -107 -245 -156 -381 -156 -98 1 -151 12 -231 50 -79 38 -149 99
-197 174 -40 63 -78 168 -78 218 l0 30 548 -2 c301 -2 556 -2 566 -1 18 1 19
8 13 119 -10 190 -61 342 -159 470 -80 103 -209 186 -339 217 -91 21 -266 19
-357 -5z m341 -200 c66 -25 164 -110 202 -175 31 -52 64 -145 74 -207 l8 -48
-453 0 -453 0 6 33 c10 56 44 150 69 194 60 103 177 197 280 223 63 15 201 5
267 -20z"
/>
<path d="M4735 6740 c-61 -66 -109 -126 -109 -133 1 -16 102 -155 279 -385 66
-87 147 -194 180 -239 l60 -82 208 -1 c114 0 207 3 207 6 0 4 -89 126 -198
273 -109 146 -229 309 -267 361 -121 168 -237 320 -244 320 -4 0 -56 -54 -116
-120z"
/>
</g>
</svg>