<?xml version="1.0" standalone="no"?>
<!DOCTYPE svg PUBLIC "-//W3C//DTD SVG 20010904//EN"
 "http://www.w3.org/TR/2001/REC-SVG-20010904/DTD/svg10.dtd">
<svg version="1.0" xmlns="http://www.w3.org/2000/svg"
 width="200" height="200" viewBox="0 0 2000.000000 2000.000000"
 preserveAspectRatio="xMidYMid meet">
<metadata>
Created by potrace 1.16, written by Peter Selinger 2001-2019
</metadata>
<g transform="translate(0.000000,2000.000000) scale(0.100000,-0.100000)"
fill="#000000" stroke="none">
<path d="M8385 14116 c-138 -27 -290 -145 -349 -270 -19 -39 -39 -95 -45 -124
-15 -72 -15 -4597 0 -4662 33 -143 146 -281 285 -348 l79 -37 1625 -3 c1602
-2 1626 -2 1691 18 120 36 241 135 295 242 58 114 54 -39 54 2460 0 1550 -3
2312 -10 2343 -40 178 -210 347 -388 384 -78 16 -3154 14 -3237 -3z m3212
-287 c38 -14 90 -65 116 -114 22 -40 22 -44 25 -742 2 -668 2 -703 -15 -704
-10 -1 -117 -1 -238 0 -121 0 -332 1 -470 1 l-250 1 -80 145 c-44 80 -88 152
-99 160 -29 20 -90 18 -108 -3 -9 -10 -46 -101 -82 -203 -95 -263 -120 -329
-123 -326 -8 7 -112 453 -159 678 -21 102 -24 143 -24 326 l0 210 94 36 94 37
59 -32 c32 -17 119 -63 193 -101 74 -38 136 -71 138 -73 2 -2 -20 -16 -50 -31
-48 -24 -277 -152 -288 -161 -5 -4 57 -122 74 -140 8 -9 55 13 199 93 103 57
191 104 195 104 5 0 23 -46 40 -103 31 -102 32 -104 94 -157 103 -87 98 -76
98 -211 l0 -119 90 0 90 0 0 134 c0 74 -5 147 -10 162 -6 15 -49 63 -95 106
-67 63 -87 88 -96 121 -22 87 -60 199 -78 235 -16 32 -39 48 -167 116 -82 44
-216 115 -299 160 -95 51 -161 80 -181 80 -17 0 -84 -22 -148 -48 -137 -56
-142 -56 -272 2 -123 55 -148 58 -204 29 -310 -161 -561 -301 -573 -321 -8
-11 -33 -79 -57 -151 l-43 -130 -93 -96 -94 -96 0 -152 0 -151 89 0 90 0 -1
83 c-2 163 -7 148 85 239 79 80 84 86 106 163 12 45 26 87 30 94 6 10 26 3 81
-28 39 -23 74 -41 78 -41 3 0 56 -30 119 -66 62 -36 117 -62 123 -59 6 4 26
38 45 76 l35 69 -22 13 c-13 8 -59 33 -103 57 -44 23 -111 60 -148 82 -80 46
-84 39 59 113 49 26 128 68 175 93 l87 45 93 -40 94 -40 0 -204 0 -204 -69
-210 c-38 -115 -81 -255 -97 -309 -16 -55 -31 -101 -32 -103 -2 -1 -38 68 -82
153 -43 86 -87 167 -98 181 -29 37 -62 46 -101 28 -32 -15 -50 -42 -154 -230
-24 -44 -49 -83 -54 -86 -5 -3 -105 -4 -221 -3 -117 2 -333 4 -480 4 l-268 0
3 698 c3 626 5 701 20 732 20 42 74 98 120 122 31 17 125 18 1600 18 1080 0
1575 -3 1595 -11z m-1526 -1705 c103 -451 103 -450 141 -470 40 -21 93 -11
114 21 9 13 44 104 79 202 122 344 143 398 151 397 5 0 32 -38 59 -83 28 -45
57 -86 65 -92 9 -5 237 -9 538 -9 l522 0 -2 -1487 -3 -1488 -27 -46 c-38 -65
-91 -98 -175 -110 -40 -5 -696 -8 -1583 -6 -1456 2 -1516 3 -1550 21 -49 26
-88 64 -113 111 l-22 40 -3 1483 -2 1482 528 0 528 0 26 28 c13 15 42 59 62
97 62 116 52 122 160 -92 52 -104 103 -197 114 -206 31 -28 74 -31 104 -7 28
21 52 90 152 425 44 146 45 149 52 143 2 -3 41 -162 85 -354z"/>
<path d="M8857 11944 c-8 -9 32 -96 82 -178 53 -86 165 -234 232 -306 117
-127 142 -175 244 -467 44 -124 36 -120 152 -85 206 63 303 96 303 104 0 4
-49 8 -109 8 -175 0 -162 -8 -217 134 -96 247 -122 291 -285 477 -66 76 -139
179 -193 272 l-28 47 -87 0 c-48 0 -90 -3 -94 -6z"/>
<path d="M10955 11931 c-10 -31 -131 -209 -188 -275 -29 -33 -61 -72 -72 -85
-11 -13 -27 -32 -35 -40 -87 -93 -117 -151 -189 -365 l-47 -139 -64 -19 c-36
-10 -144 -43 -240 -72 -96 -30 -276 -84 -400 -121 -124 -37 -233 -75 -242 -83
-13 -11 -18 -30 -18 -73 0 -70 18 -94 64 -85 34 7 484 140 939 277 115 35 101
15 177 254 58 182 86 235 168 326 99 110 171 198 223 275 51 76 119 208 119
231 0 10 -24 13 -94 13 -85 0 -95 -2 -101 -19z"/>
<path d="M8615 11288 c-43 -23 -45 -33 -45 -254 l0 -213 26 -20 c25 -20 39
-21 235 -21 205 0 208 0 236 24 l28 24 -1 207 -2 207 -28 29 -28 29 -200 0
c-126 0 -208 -5 -221 -12z"/>
<path d="M10939 11271 l-29 -29 0 -204 0 -204 28 -27 28 -27 206 0 c204 0 207
0 235 24 l28 24 0 210 c0 209 0 211 -24 236 l-24 26 -210 0 -209 0 -29 -29z"/>
<path d="M10245 10655 c-132 -41 -355 -107 -495 -149 -277 -82 -290 -89 -290
-155 0 -47 12 -58 160 -152 63 -40 129 -87 145 -105 57 -62 95 -74 235 -74
110 0 131 3 175 24 90 42 176 167 191 280 7 48 7 48 -17 41 -175 -57 -339
-107 -388 -120 l-61 -16 -70 41 c-39 23 -70 44 -70 48 0 5 89 34 198 65 421
123 586 176 599 193 18 25 16 105 -3 132 -10 14 -25 22 -42 21 -15 -1 -135
-34 -267 -74z"/>
<path d="M8596 10514 l-26 -27 0 -213 0 -213 26 -20 c25 -20 39 -21 230 -21
217 0 244 5 263 47 14 31 14 358 0 406 -18 63 -31 67 -260 67 l-206 0 -27 -26z"/>
<path d="M10936 10509 l-26 -31 0 -584 0 -585 26 -24 c27 -25 28 -25 230 -25
219 0 245 5 264 49 7 19 10 199 8 605 l-3 578 -28 24 c-28 24 -31 24 -237 24
l-208 0 -26 -31z"/>
<path d="M8615 9768 c-43 -23 -45 -33 -45 -254 l0 -213 26 -20 c25 -20 39 -21
236 -21 l210 0 30 30 29 30 -3 206 -3 206 -28 24 c-28 24 -31 24 -230 24 -127
0 -209 -5 -222 -12z"/>
<path d="M9379 9751 l-29 -29 0 -207 0 -206 26 -24 c27 -25 28 -25 230 -25
213 0 247 6 261 44 9 23 6 400 -3 429 -12 38 -62 47 -264 47 l-192 0 -29 -29z"/>
<path d="M10175 9768 c-43 -23 -45 -33 -45 -250 0 -280 -22 -258 259 -258 207
0 210 0 238 24 l28 24 3 180 c4 217 -4 257 -53 278 -43 18 -398 20 -430 2z"/>
<path d="M7437 7902 c-16 -3 -17 -72 -17 -1003 l0 -999 170 0 170 0 0 999 c0
963 -1 1000 -18 1006 -19 5 -272 3 -305 -3z"/>
<path d="M8203 7902 c-9 -5 -12 -251 -12 -1005 l0 -997 172 2 172 3 1 209 2
209 101 101 c88 88 102 99 115 86 8 -8 65 -91 128 -185 63 -93 153 -227 202
-297 l87 -128 200 0 c157 0 199 3 193 13 -4 6 -37 55 -74 107 -37 52 -108 156
-158 230 -51 74 -151 220 -223 324 l-131 188 54 57 c30 31 108 112 175 181 66
69 168 175 226 235 l105 110 -206 3 -207 3 -80 -83 c-108 -112 -458 -487 -484
-518 l-20 -25 -1 165 c-1 91 -2 356 -3 590 l-2 425 -160 2 c-88 2 -165 0 -172
-5z"/>
<path d="M3857 7832 c-11 -16 -7 -1074 3 -1070 6 2 84 82 175 178 l164 175 2
348 c1 191 2 353 3 360 1 9 -41 13 -171 15 -94 1 -174 -1 -176 -6z"/>
<path d="M5014 7738 c-55 -57 -156 -164 -224 -238 -69 -74 -159 -171 -201
-215 -41 -44 -136 -145 -209 -225 -73 -80 -181 -197 -239 -260 -124 -135 -238
-263 -269 -304 -21 -28 -22 -36 -22 -313 l0 -283 176 2 176 3 -1 252 -2 252
38 43 c47 54 272 296 374 403 42 44 105 111 140 150 35 38 105 113 154 165 50
52 124 131 165 175 41 43 162 170 268 281 105 111 192 204 192 207 0 3 -93 6
-207 7 l-208 0 -101 -102z"/>
<path d="M9875 7832 c-19 -7 -20 -15 -19 -242 1 -129 2 -562 3 -962 l1 -728
115 0 115 0 2 763 3 762 210 -310 c332 -492 367 -543 427 -626 32 -44 62 -79
66 -79 11 0 34 33 325 465 217 322 441 631 569 786 35 44 38 51 38 112 l0 65
-120 1 -120 2 -218 -330 c-119 -182 -275 -420 -346 -528 -112 -171 -131 -195
-140 -179 -14 24 -505 767 -605 916 l-77 115 -105 2 c-57 1 -113 -2 -124 -5z"/>
<path d="M13878 7548 l-3 -213 -102 -3 -103 -3 0 -99 0 -99 103 -3 102 -3 1
-465 c2 -495 4 -514 52 -604 89 -163 335 -228 573 -149 l54 18 1 103 c1 56 -2
105 -6 107 -4 3 -27 -6 -51 -18 -37 -19 -60 -22 -151 -22 -102 0 -108 1 -149
30 -89 63 -83 30 -89 518 -3 238 -4 444 -2 460 l3 27 225 0 224 0 0 100 0 100
-225 0 -225 0 -2 213 -3 212 -112 3 -113 3 -2 -213z"/>
<path d="M11678 7343 c-25 -32 -75 -100 -112 -152 l-66 -94 0 -599 0 -599 115
3 116 3 -1 744 c0 410 -2 746 -4 748 -1 2 -23 -23 -48 -54z"/>
<path d="M6145 7355 c-101 -19 -223 -56 -297 -89 l-56 -25 35 -93 c19 -51 40
-108 47 -126 6 -19 16 -33 21 -32 6 0 57 16 115 35 143 46 223 58 338 52 115
-6 155 -17 218 -60 65 -45 103 -115 111 -205 l6 -69 -119 23 c-485 97 -827
-44 -876 -361 -32 -203 62 -382 248 -471 243 -117 547 -72 722 107 l32 33 0
-87 0 -87 166 0 165 0 -4 498 c-4 539 -6 557 -63 678 -33 70 -116 160 -189
203 -100 60 -197 82 -380 87 -114 2 -183 -1 -240 -11z m440 -808 c39 -10 76
-21 83 -26 20 -12 26 -80 13 -143 -31 -148 -169 -246 -356 -253 -185 -8 -305
82 -305 228 0 84 58 154 161 193 58 22 76 24 199 21 83 -2 162 -10 205 -20z"/>
<path d="M12625 7350 c-139 -20 -320 -77 -373 -118 l-22 -17 31 -80 c18 -44
35 -84 39 -88 4 -5 27 1 51 14 175 89 438 116 583 59 74 -28 147 -95 181 -164
24 -48 50 -212 36 -220 -3 -2 -58 8 -121 22 -152 32 -436 38 -540 9 -267 -72
-408 -261 -373 -500 14 -102 51 -176 120 -246 100 -99 247 -151 430 -151 164
0 284 45 413 153 l75 63 -3 -93 -3 -93 116 0 117 0 -4 503 c-5 551 -5 552 -69
679 -64 126 -172 209 -326 249 -89 23 -267 32 -358 19z m401 -760 c64 -11 121
-23 126 -26 7 -5 9 -44 5 -110 -6 -120 -25 -168 -98 -248 -91 -99 -205 -146
-356 -147 -198 -1 -320 82 -354 240 -8 41 -7 61 6 106 54 187 286 251 671 185z"/>
<path d="M15292 7340 c-244 -64 -430 -266 -492 -534 -19 -82 -22 -115 -17
-219 6 -137 22 -210 71 -312 46 -98 116 -186 197 -250 128 -99 251 -143 429
-152 184 -9 322 27 462 121 69 46 162 131 157 143 -2 5 -34 38 -71 72 l-68 63
-53 -46 c-126 -107 -245 -156 -381 -156 -98 1 -151 12 -231 50 -79 38 -149 99
-197 174 -40 63 -78 168 -78 218 l0 30 548 -2 c301 -2 556 -2 566 -1 18 1 19
8 13 119 -10 190 -61 342 -159 470 -80 103 -209 186 -339 217 -91 21 -266 19
-357 -5z m341 -200 c66 -25 164 -110 202 -175 31 -52 64 -145 74 -207 l8 -48
-453 0 -453 0 6 33 c10 56 44 150 69 194 60 103 177 197 280 223 63 15 201 5
267 -20z"/>
<path d="M4735 6740 c-61 -66 -109 -126 -109 -133 1 -16 102 -155 279 -385 66
-87 147 -194 180 -239 l60 -82 208 -1 c114 0 207 3 207 6 0 4 -89 126 -198
273 -109 146 -229 309 -267 361 -121 168 -237 320 -244 320 -4 0 -56 -54 -116
-120z"/>
</g>
</svg>
