<?xml version="1.0" standalone="no"?>
<svg version="1.0" xmlns="http://www.w3.org/2000/svg"
 width="200" height="200" viewBox="835 585 330 555"
 preserveAspectRatio="xMidYMid meet">
<g transform="translate(0.000000,2000.000000) scale(0.100000,-0.100000)"
fill="#000000" stroke="none">
<path d="M8385 14116 c-138 -27 -290 -145 -349 -270 -19 -39 -39 -95 -45 -124
-15 -72 -15 -4597 0 -4662 33 -143 146 -281 285 -348 l79 -37 1625 -3 c1602
-2 1626 -2 1691 18 120 36 241 135 295 242 58 114 54 -39 54 2460 0 1550 -3
2312 -10 2343 -40 178 -210 347 -388 384 -78 16 -3154 14 -3237 -3z m3212
-287 c38 -14 90 -65 116 -114 22 -40 22 -44 25 -742 2 -668 2 -703 -15 -704
-10 -1 -117 -1 -238 0 -121 0 -332 1 -470 1 l-250 1 -80 145 c-44 80 -88 152
-99 160 -29 20 -90 18 -108 -3 -9 -10 -46 -101 -82 -203 -95 -263 -120 -329
-123 -326 -8 7 -112 453 -159 678 -21 102 -24 143 -24 326 l0 210 94 36 94 37
59 -32 c32 -17 119 -63 193 -101 74 -38 136 -71 138 -73 2 -2 -20 -16 -50 -31
-48 -24 -277 -152 -288 -161 -5 -4 57 -122 74 -140 8 -9 55 13 199 93 103 57
191 104 195 104 5 0 23 -46 40 -103 31 -102 32 -104 94 -157 103 -87 98 -76
98 -211 l0 -119 90 0 90 0 0 134 c0 74 -5 147 -10 162 -6 15 -49 63 -95 106
-67 63 -87 88 -96 121 -22 87 -60 199 -78 235 -16 32 -39 48 -167 116 -82 44
-216 115 -299 160 -95 51 -161 80 -181 80 -17 0 -84 -22 -148 -48 -137 -56
-142 -56 -272 2 -123 55 -148 58 -204 29 -310 -161 -561 -301 -573 -321 -8
-11 -33 -79 -57 -151 l-43 -130 -93 -96 -94 -96 0 -152 0 -151 89 0 90 0 -1
83 c-2 163 -7 148 85 239 79 80 84 86 106 163 12 45 26 87 30 94 6 10 26 3 81
-28 39 -23 74 -41 78 -41 3 0 56 -30 119 -66 62 -36 117 -62 123 -59 6 4 26
38 45 76 l35 69 -22 13 c-13 8 -59 33 -103 57 -44 23 -111 60 -148 82 -80 46
-84 39 59 113 49 26 128 68 175 93 l87 45 93 -40 94 -40 0 -204 0 -204 -69
-210 c-38 -115 -81 -255 -97 -309 -16 -55 -31 -101 -32 -103 -2 -1 -38 68 -82
153 -43 86 -87 167 -98 181 -29 37 -62 46 -101 28 -32 -15 -50 -42 -154 -230
-24 -44 -49 -83 -54 -86 -5 -3 -105 -4 -221 -3 -117 2 -333 4 -480 4 l-268 0
3 698 c3 626 5 701 20 732 20 42 74 98 120 122 31 17 125 18 1600 18 1080 0
1575 -3 1595 -11z m-1526 -1705 c103 -451 103 -450 141 -470 40 -21 93 -11
114 21 9 13 44 104 79 202 122 344 143 398 151 397 5 0 32 -38 59 -83 28 -45
57 -86 65 -92 9 -5 237 -9 538 -9 l522 0 -2 -1487 -3 -1488 -27 -46 c-38 -65
-91 -98 -175 -110 -40 -5 -696 -8 -1583 -6 -1456 2 -1516 3 -1550 21 -49 26
-88 64 -113 111 l-22 40 -3 1483 -2 1482 528 0 528 0 26 28 c13 15 42 59 62
97 62 116 52 122 160 -92 52 -104 103 -197 114 -206 31 -28 74 -31 104 -7 28
21 52 90 152 425 44 146 45 149 52 143 2 -3 41 -162 85 -354z"
/>
<path d="M8857 11944 c-8 -9 32 -96 82 -178 53 -86 165 -234 232 -306 117
-127 142 -175 244 -467 44 -124 36 -120 152 -85 206 63 303 96 303 104 0 4
-49 8 -109 8 -175 0 -162 -8 -217 134 -96 247 -122 291 -285 477 -66 76 -139
179 -193 272 l-28 47 -87 0 c-48 0 -90 -3 -94 -6z"
/>
<path d="M10955 11931 c-10 -31 -131 -209 -188 -275 -29 -33 -61 -72 -72 -85
-11 -13 -27 -32 -35 -40 -87 -93 -117 -151 -189 -365 l-47 -139 -64 -19 c-36
-10 -144 -43 -240 -72 -96 -30 -276 -84 -400 -121 -124 -37 -233 -75 -242 -83
-13 -11 -18 -30 -18 -73 0 -70 18 -94 64 -85 34 7 484 140 939 277 115 35 101
15 177 254 58 182 86 235 168 326 99 110 171 198 223 275 51 76 119 208 119
231 0 10 -24 13 -94 13 -85 0 -95 -2 -101 -19z"
/>
<path d="M8615 11288 c-43 -23 -45 -33 -45 -254 l0 -213 26 -20 c25 -20 39
-21 235 -21 205 0 208 0 236 24 l28 24 -1 207 -2 207 -28 29 -28 29 -200 0
c-126 0 -208 -5 -221 -12z"
/>
<path d="M10939 11271 l-29 -29 0 -204 0 -204 28 -27 28 -27 206 0 c204 0 207
0 235 24 l28 24 0 210 c0 209 0 211 -24 236 l-24 26 -210 0 -209 0 -29 -29z"
/>
<path d="M10245 10655 c-132 -41 -355 -107 -495 -149 -277 -82 -290 -89 -290
-155 0 -47 12 -58 160 -152 63 -40 129 -87 145 -105 57 -62 95 -74 235 -74
110 0 131 3 175 24 90 42 176 167 191 280 7 48 7 48 -17 41 -175 -57 -339
-107 -388 -120 l-61 -16 -70 41 c-39 23 -70 44 -70 48 0 5 89 34 198 65 421
123 586 176 599 193 18 25 16 105 -3 132 -10 14 -25 22 -42 21 -15 -1 -135
-34 -267 -74z"
/>
<path d="M8596 10514 l-26 -27 0 -213 0 -213 26 -20 c25 -20 39 -21 230 -21
217 0 244 5 263 47 14 31 14 358 0 406 -18 63 -31 67 -260 67 l-206 0 -27 -26z"
/>
<path d="M10936 10509 l-26 -31 0 -584 0 -585 26 -24 c27 -25 28 -25 230 -25
219 0 245 5 264 49 7 19 10 199 8 605 l-3 578 -28 24 c-28 24 -31 24 -237 24
l-208 0 -26 -31z"
/>
<path d="M8615 9768 c-43 -23 -45 -33 -45 -254 l0 -213 26 -20 c25 -20 39 -21
236 -21 l210 0 30 30 29 30 -3 206 -3 206 -28 24 c-28 24 -31 24 -230 24 -127
0 -209 -5 -222 -12z"
/>
<path d="M9379 9751 l-29 -29 0 -207 0 -206 26 -24 c27 -25 28 -25 230 -25
213 0 247 6 261 44 9 23 6 400 -3 429 -12 38 -62 47 -264 47 l-192 0 -29 -29z"
/>
<path d="M10175 9768 c-43 -23 -45 -33 -45 -250 0 -280 -22 -258 259 -258 207
0 210 0 238 24 l28 24 3 180 c4 217 -4 257 -53 278 -43 18 -398 20 -430 2z"
/>
</g>
</svg>